<svg width="32769" height="4307" viewBox="0 0 32769 4307" fill="none" xmlns="http://www.w3.org/2000/svg">
<path d="M0.00132233 4244.15V0.0423146H2810.06V739.859H897.315V1751.15H2623.55V2490.97H897.315V4244.15H0.00132233ZM5238.82 2888.85V1061.07H6121.63V4244.15H5274.05V3665.97H5240.89C5169.05 3852.48 5049.55 4002.38 4882.38 4115.66C4716.6 4228.95 4514.2 4285.59 4275.19 4285.59C4062.43 4285.59 3875.23 4237.24 3713.59 4140.53C3551.95 4043.82 3425.54 3906.36 3334.36 3728.14C3244.56 3549.92 3198.97 3336.47 3197.59 3087.79V1061.07H4080.39V2930.3C4081.78 3118.19 4132.2 3266.7 4231.67 3375.85C4331.14 3484.99 4464.46 3539.56 4631.63 3539.56C4738.01 3539.56 4837.48 3515.38 4930.04 3467.03C5022.61 3417.29 5097.21 3344.07 5153.85 3247.36C5211.88 3150.66 5240.2 3031.15 5238.82 2888.85ZM8520.85 1061.07V1724.21H6603.96V1061.07H8520.85ZM7039.14 298.456H7921.95V3266.01C7921.95 3347.53 7934.39 3411.08 7959.25 3456.67C7984.12 3500.88 8018.66 3531.96 8062.87 3549.92C8108.46 3567.88 8160.96 3576.86 8220.37 3576.86C8261.81 3576.86 8303.26 3573.41 8344.7 3566.5C8386.15 3558.21 8417.93 3551.99 8440.03 3547.85L8578.88 4204.77C8534.67 4218.59 8472.5 4234.48 8392.37 4252.44C8312.24 4271.78 8214.84 4283.52 8100.17 4287.67C7887.41 4295.96 7700.9 4267.63 7540.65 4202.7C7381.77 4137.77 7258.12 4036.92 7169.7 3900.14C7081.28 3763.37 7037.76 3590.68 7039.14 3382.06V298.456ZM11704.4 1968.74L10896.2 2018.48C10882.4 1949.4 10852.7 1887.23 10807.1 1831.97C10761.5 1775.33 10701.4 1730.43 10626.8 1697.27C10553.6 1662.73 10465.9 1645.46 10363.7 1645.46C10226.9 1645.46 10111.5 1674.47 10017.6 1732.5C9923.64 1789.14 9876.66 1865.13 9876.66 1960.45C9876.66 2036.44 9907.06 2100.68 9967.85 2153.18C10028.6 2205.68 10132.9 2247.82 10280.8 2279.59L10856.9 2395.64C11166.3 2459.19 11397.1 2561.43 11549 2702.34C11701 2843.26 11777 3028.39 11777 3257.72C11777 3466.34 11715.5 3649.39 11592.5 3806.89C11471 3964.39 11303.8 4087.34 11091 4175.76C10879.7 4262.8 10635.8 4306.32 10359.5 4306.32C9938.14 4306.32 9602.43 4218.59 9352.37 4043.13C9103.69 3866.3 8957.94 3625.91 8915.11 3321.97L9783.41 3276.38C9809.66 3404.86 9873.21 3502.95 9974.06 3570.64C10074.9 3636.96 10204.1 3670.12 10361.6 3670.12C10516.3 3670.12 10640.7 3640.41 10734.6 3581.01C10829.9 3520.22 10878.3 3442.16 10879.7 3346.83C10878.3 3266.7 10844.4 3201.08 10778.1 3149.96C10711.8 3097.47 10609.6 3057.4 10471.4 3029.77L9920.18 2919.94C9609.34 2857.77 9377.93 2750.01 9225.96 2596.66C9075.37 2443.3 9000.07 2247.82 9000.07 2010.19C9000.07 1805.72 9055.34 1629.57 9165.86 1481.75C9277.77 1333.92 9434.57 1219.95 9636.28 1139.82C9839.36 1059.69 10077 1019.62 10349.2 1019.62C10751.2 1019.62 11067.6 1104.59 11298.3 1274.52C11530.4 1444.45 11665.8 1675.86 11704.4 1968.74ZM13240.6 4304.25C13037.5 4304.25 12856.5 4269.02 12697.6 4198.56C12538.7 4126.72 12413 4021.03 12320.4 3881.49C12229.3 3740.57 12183.7 3565.12 12183.7 3355.12C12183.7 3178.29 12216.1 3029.77 12281.1 2909.58C12346 2789.38 12434.4 2692.67 12546.3 2619.45C12658.2 2546.23 12785.3 2490.97 12927.6 2453.67C13071.3 2416.36 13221.9 2390.11 13379.4 2374.92C13564.5 2355.58 13713.7 2337.62 13827 2321.04C13940.3 2303.08 14022.5 2276.83 14073.6 2242.29C14124.7 2207.75 14150.3 2156.63 14150.3 2088.94V2076.5C14150.3 1945.26 14108.9 1843.71 14026 1771.87C13944.5 1700.03 13828.4 1664.11 13677.8 1664.11C13518.9 1664.11 13392.5 1699.34 13298.6 1769.8C13204.6 1838.88 13142.5 1925.92 13112.1 2030.91L12295.6 1964.6C12337 1771.18 12418.5 1604.02 12540.1 1463.1C12661.7 1320.8 12818.5 1211.66 13010.5 1135.67C13203.9 1058.31 13427.8 1019.62 13682 1019.62C13858.8 1019.62 14028 1040.35 14189.7 1081.79C14352.7 1123.24 14497.1 1187.48 14622.8 1274.52C14749.9 1361.55 14850.1 1473.46 14923.3 1610.23C14996.5 1745.62 15033.1 1907.96 15033.1 2097.23V4244.15H14195.9V3802.74H14171C14119.9 3902.22 14051.5 3989.94 13965.9 4065.93C13880.2 4140.53 13777.3 4199.25 13657.1 4242.08C13536.9 4283.52 13398 4304.25 13240.6 4304.25ZM13493.4 3694.98C13623.2 3694.98 13737.9 3669.43 13837.4 3618.31C13936.9 3565.81 14014.9 3495.35 14071.6 3406.93C14128.2 3318.51 14156.5 3218.35 14156.5 3106.45V2768.66C14128.9 2786.62 14090.9 2803.2 14042.5 2818.39C13995.6 2832.21 13942.4 2845.33 13883 2857.77C13823.6 2868.82 13764.2 2879.18 13704.8 2888.85C13645.3 2897.14 13591.5 2904.74 13543.1 2911.65C13439.5 2926.84 13349 2951.02 13271.6 2984.18C13194.3 3017.34 13134.2 3062.24 13091.3 3118.88C13048.5 3174.14 13027.1 3243.22 13027.1 3326.11C13027.1 3446.31 13070.6 3538.18 13157.7 3601.73C13246.1 3663.9 13358 3694.98 13493.4 3694.98ZM16600.8 0.0423146V4244.15H15718V0.0423146H16600.8ZM17324.6 0.0423146H18431.2L19600 2851.55H19649.7L20818.5 0.0423146H21925.1V4244.15H21054.7V1481.75H21019.5L19921.2 4223.42H19328.5L18230.2 1471.39H18194.9V4244.15H17324.6V0.0423146ZM23555.5 4304.25C23352.4 4304.25 23171.4 4269.02 23012.6 4198.56C22853.7 4126.72 22728 4021.03 22635.4 3881.49C22544.2 3740.57 22498.6 3565.12 22498.6 3355.12C22498.6 3178.29 22531.1 3029.77 22596 2909.58C22661 2789.38 22749.4 2692.67 22861.3 2619.45C22973.2 2546.23 23100.3 2490.97 23242.6 2453.67C23386.3 2416.36 23536.9 2390.11 23694.4 2374.92C23879.5 2355.58 24028.7 2337.62 24142 2321.04C24255.3 2303.08 24337.5 2276.83 24388.6 2242.29C24439.7 2207.75 24465.3 2156.63 24465.3 2088.94V2076.5C24465.3 1945.26 24423.8 1843.71 24340.9 1771.87C24259.4 1700.03 24143.4 1664.11 23992.8 1664.11C23833.9 1664.11 23707.5 1699.34 23613.5 1769.8C23519.6 1838.88 23457.4 1925.92 23427 2030.91L22610.5 1964.6C22652 1771.18 22733.5 1604.02 22855.1 1463.1C22976.6 1320.8 23133.4 1211.66 23325.5 1135.67C23518.9 1058.31 23742.7 1019.62 23996.9 1019.62C24173.8 1019.62 24343 1040.35 24504.6 1081.79C24667.7 1123.24 24812 1187.48 24937.7 1274.52C25064.8 1361.55 25165 1473.46 25238.2 1610.23C25311.5 1745.62 25348.1 1907.96 25348.1 2097.23V4244.15H24510.9V3802.74H24486C24434.9 3902.22 24366.5 3989.94 24280.8 4065.93C24195.2 4140.53 24092.2 4199.25 23972 4242.08C23851.9 4283.52 23713 4304.25 23555.5 4304.25ZM23808.3 3694.98C23938.2 3694.98 24052.9 3669.43 24152.3 3618.31C24251.8 3565.81 24329.9 3495.35 24386.5 3406.93C24443.2 3318.51 24471.5 3218.35 24471.5 3106.45V2768.66C24443.8 2786.62 24405.9 2803.2 24357.5 2818.39C24310.5 2832.21 24257.3 2845.33 24197.9 2857.77C24138.5 2868.82 24079.1 2879.18 24019.7 2888.85C23960.3 2897.14 23906.4 2904.74 23858.1 2911.65C23754.5 2926.84 23664 2951.02 23586.6 2984.18C23509.2 3017.34 23449.1 3062.24 23406.3 3118.88C23363.5 3174.14 23342.1 3243.22 23342.1 3326.11C23342.1 3446.31 23385.6 3538.18 23472.6 3601.73C23561 3663.9 23672.9 3694.98 23808.3 3694.98ZM27726 1061.07V1724.21H25809.2V1061.07H27726ZM26244.3 298.456H27127.2V3266.01C27127.2 3347.53 27139.6 3411.08 27164.5 3456.67C27189.3 3500.88 27223.9 3531.96 27268.1 3549.92C27313.7 3567.88 27366.2 3576.86 27425.6 3576.86C27467 3576.86 27508.5 3573.41 27549.9 3566.5C27591.3 3558.21 27623.1 3551.99 27645.2 3547.85L27784.1 4204.77C27739.9 4218.59 27677.7 4234.48 27597.6 4252.44C27517.4 4271.78 27420 4283.52 27305.4 4287.67C27092.6 4295.96 26906.1 4267.63 26745.8 4202.7C26587 4137.77 26463.3 4036.92 26374.9 3900.14C26286.5 3763.37 26243 3590.68 26244.3 3382.06V298.456ZM29717.5 4306.32C29390.1 4306.32 29108.3 4240 28872 4107.37C28637.2 3973.37 28456.2 3784.09 28329.1 3539.56C28202 3293.65 28138.4 3002.83 28138.4 2667.11C28138.4 2339.69 28202 2052.33 28329.1 1805.03C28456.2 1557.73 28635.1 1365.01 28865.8 1226.85C29097.9 1088.7 29370.1 1019.62 29682.3 1019.62C29892.3 1019.62 30087.8 1053.47 30268.8 1121.17C30451.1 1187.48 30610 1287.64 30745.4 1421.65C30882.2 1555.66 30988.6 1724.21 31064.6 1927.3C31140.5 2129 31178.5 2365.25 31178.5 2636.03V2878.49H28490.7V2331.4H30347.5C30347.5 2204.3 30319.9 2091.7 30264.6 1993.61C30209.4 1895.52 30132.7 1818.85 30034.6 1763.58C29937.9 1706.94 29825.3 1678.62 29696.8 1678.62C29562.8 1678.62 29444 1709.7 29340.4 1771.87C29238.2 1832.66 29158 1914.86 29100 2018.48C29042 2120.71 29012.3 2234.69 29010.9 2360.41V2880.56C29010.9 3038.06 29039.9 3174.14 29097.9 3288.81C29157.3 3403.48 29240.9 3491.9 29348.7 3554.07C29456.4 3616.24 29584.2 3647.32 29732.1 3647.32C29830.1 3647.32 29919.9 3633.51 30001.5 3605.87C30083 3578.24 30152.7 3536.8 30210.8 3481.54C30268.8 3426.27 30313 3358.58 30343.4 3278.45L31159.9 3332.33C31118.4 3528.51 31033.5 3699.82 30905 3846.26C30777.9 3991.33 30613.5 4104.61 30411.8 4186.12C30211.4 4266.25 29980 4306.32 29717.5 4306.32ZM32270.6 4298.03C32133.9 4298.03 32016.4 4249.67 31918.3 4152.97C31821.6 4054.88 31773.3 3937.44 31773.3 3800.67C31773.3 3665.28 31821.6 3549.23 31918.3 3452.52C32016.4 3355.81 32133.9 3307.46 32270.6 3307.46C32403.3 3307.46 32519.3 3355.81 32618.8 3452.52C32718.3 3549.23 32768 3665.28 32768 3800.67C32768 3891.85 32744.5 3975.44 32697.5 4051.42C32651.9 4126.03 32591.9 4186.12 32517.2 4231.71C32442.6 4275.92 32360.4 4298.03 32270.6 4298.03Z" fill="#373D3F"/>
</svg>
